#!OML:ASF X:\für Bonn\!DataBase\2005_08_11_Bastian_Final\c3d\Bastian.ASF
:FULLY-SPECIFIED
:DEGREES
64
root 1.10951 20.8762 27.2422 718.768 1.16903 -3.65098
lowerback 15.8253 -2.64107 3.62343
upperback 5.98314 -2.89429 0.852991
thorax -2.63325 -1.40797 -0.633648
lowerneck -3.58328 -2.42479 -0.304965
upperneck 0.324511 -3.30536 5.33778
head 0.806244 -1.59642 1.65174
rclavicle 1.799e-014 -1.47101e-014
rhumerus -34.8052 10.4455 -89.5526
rradius 41.0577
rwrist -1.92214
rhand -25.1881 14.5208
rfingers 7.12502
rthumb 1.3299 -15.4548
lclavicle 1.799e-014 -1.47101e-014
lhumerus -34.7155 14.2983 73.313
lradius 35.6272
lwrist 174.679
lhand -21.8004 5.94839
lfingers 7.12502
lthumb 4.60149 35.8784
rfemur -30.6198 -4.57112 22.1511
rtibia 46.8308
rfoot 0.121795 1.43364
rtoes -59.0206
lfemur -23.3307 7.0748 -17.6644
ltibia 30.2025
lfoot 16.3073 -5.1356
ltoes -31.6333
65
root 1.09593 20.6634 27.4632 718.534 1.15296 -3.6583
lowerback 16.2103 -2.64044 3.69797
upperback 5.92205 -2.85894 0.898662
thorax -2.90099 -1.39344 -0.616497
lowerneck -3.49838 -2.44135 -0.262474
upperneck 0.0406435 -3.31282 5.17182
head 0.698416 -1.6082 1.59278
rclavicle 2.44505e-014 -2.06736e-014
rhumerus -35.4862 9.99259 -89.6239
rradius 39.3664
rwrist -2.46854
rhand -25.0488 13.9871
rfingers 7.12502
rthumb 1.46439 -15.9876
lclavicle 2.44505e-014 -2.06736e-014
lhumerus -35.4886 17.4239 71.7029
lradius 32.9751
lwrist 171.806
lhand -22.4787 5.12023
lfingers 7.12502
lthumb 3.94652 35.0634
rfemur -30.2256 -4.28294 21.8849
rtibia 45.7769
rfoot 0.337912 1.05004
rtoes -59.083
lfemur -23.299 6.65554 -17.5355
ltibia 29.8795
lfoot 16.6271 -5.19939
ltoes -30.9685
66
root 1.08111 20.4347 27.6874 718.299 1.10602 -3.75247
lowerback 16.5615 -2.63578 3.82034
upperback 5.8582 -2.81004 0.982417
thorax -3.15316 -1.37226 -0.590391
lowerneck -3.54346 -2.44375 -0.302961
upperneck -0.123327 -3.30655 5.08002
head 0.653434 -1.60827 1.5707
rclavicle -3.09607e-014 1.58034e-014
rhumerus -36.1602 9.50689 -89.6268
rradius 37.7093
rwrist -2.88452
rhand -24.7199 13.415
rfingers 7.12502
rthumb 1.78207 -16.5573
lclavicle -3.09607e-014 1.58034e-014
lhumerus -36.5442 20.9759 69.6973
lradius 30.5751
lwrist 167.929
lhand -23.1158 4.49018
lfingers 7.12502
lthumb 3.3313 34.4439
rfemur -29.8523 -3.97622 21.7351
rtibia 44.8562
rfoot 0.42709 0.705788
rtoes -59.0822
lfemur -23.3117 6.28076 -17.3015
ltibia 29.7647
lfoot 17.0983 -5.3397
ltoes -29.8102
67
root 1.06552 20.1934 27.9148 718.21 1.08072 -3.90477
lowerback 16.6717 -2.63685 4.03635
upperback 5.77991 -2.7655 1.06025
thorax -3.29764 -1.35196 -0.631901
lowerneck -3.73229 -2.46441 -0.320367
upperneck -0.155897 -3.33272 4.96335
head 0.673719 -1.62046 1.53415
rclavicle -1.39398e-014 1.21259e-014
rhumerus -36.7853 9.02898 -89.637
rradius 36.1176
rwrist -3.33878
rhand -24.2444 12.7199
rfingers 7.12502
rthumb 2.24134 -17.2481
lclavicle -1.39398e-014 1.21259e-014
lhumerus -37.8691 24.6333 67.3152
lradius 28.4027
lwrist 163.436
lhand -23.5377 4.07551
lfingers 7.12502
lthumb 2.92384 34.0352
rfemur -29.6865 -3.71389 21.6836
rtibia 44.1348
rfoot 0.399688 0.483336
rtoes -59.3277
lfemur -23.5144 6.01759 -17.0551
ltibia 29.8028
lfoot 17.7649 -5.64883
ltoes -28.5969
68
root 1.0488 19.9399 28.1458 718.176 1.05301 -4.14763
lowerback 16.648 -2.64175 4.36437
upperback 5.70109 -2.71504 1.1406
thorax -3.37586 -1.32783 -0.740255
lowerneck -3.93153 -2.48852 -0.342237
upperneck -0.252996 -3.36106 4.8746
head 0.676391 -1.63452 1.50736
rclavicle -2.01766e-014 -3.8266e-015
rhumerus -37.3837 8.4652 -89.624
rradius 34.4503
rwrist -3.4484
rhand -23.8072 12.2088
rfingers 7.12502
rthumb 2.66359 -17.7543
lclavicle -2.01766e-014 -3.8266e-015
lhumerus -39.4391 27.8231 64.7939
lradius 26.5957
lwrist 158.867
lhand -23.7404 3.7495
lfingers 7.12502
lthumb 2.72811 33.7118
rfemur -29.6409 -3.50167 21.7721
rtibia 43.6435
rfoot 0.404363 0.407794
rtoes -59.7467
lfemur -23.7643 5.82815 -16.7285
ltibia 29.9487
lfoot 18.4883 -6.07756
ltoes -29.1391
69
root 1.03177 19.6679 28.3786 718.119 1.01223 -4.39301
lowerback 16.6046 -2.645 4.69685
upperback 5.63204 -2.66369 1.20971
thorax -3.43343 -1.30316 -0.864103
lowerneck -4.11762 -2.51773 -0.37753
upperneck -0.397473 -3.39367 4.79822
head 0.662691 -1.65158 1.48705
rclavicle 8.25205e-014 -4.07012e-014
rhumerus -37.9741 7.87789 -89.5771
rradius 32.6941
rwrist -3.37438
rhand -23.4228 11.9473
rfingers 7.12502
rthumb 3.03476 -18.0109
lclavicle 8.25205e-014 -4.07012e-014
lhumerus -41.2697 30.6443 62.1072
lradius 25.1079
lwrist 154.475
lhand -23.853 3.56153
lfingers 7.12502
lthumb 2.61937 33.5252
rfemur -29.6452 -3.29018 21.8809
rtibia 43.3986
rfoot 0.539888 0.495468
rtoes -60.0015
lfemur -23.9229 5.62041 -16.382
ltibia 30.194
lfoot 19.2334 -6.34695
ltoes -28.9749
